<svg height="580" width="580" xmlns="http://www.w3.org/2000/svg"><path d="m66.275 1.768c-41.335 0-64.571 21.371-64.571 65.036v450.123c0 40.844 20.895 62.229 62.192 62.229h452.024c41.307 0 62.229-20.315 62.229-62.229v-450.123c0-42.601-20.922-65.036-63.521-65.036-.004 0-448.495-.143-448.353 0z" fill="#111" stroke="#eee" stroke-width="3.408"/><g stroke="#fff" stroke-linecap="round" stroke-linejoin="round"><path d="m290.72462 56.635294-16.56904 438.442066h-112.1596v24.21628h131.27771z" fill="#fff" fill-rule="evenodd" stroke-width="10.829243"/><path d="m58.129612 137.95623c14.341694 13.98578 50.108518 29.96062 71.365578 28.28958 24.61314-.14502 50.16031-9.63032 76.47245-26.76535 24.34286-16.31585 52.99072-24.02176 84.1197-26.76536l-.63727 20.39265c-33.22907-3.65664-56.33541 15.46286-83.48243 25.49082-19.88678 10.49156-38.4756 21.6911-76.47245 22.30447-39.309463-4.1278-57.475071-23.89568-71.365578-42.94681z" fill="#fff" fill-rule="evenodd" stroke-width="5.414621"/><path d="m37.728248 384.58495 84.119702-202.40738 82.84516 202.40738z" fill="none" stroke-width="10.829243"/><path d="m35.139336 379.0259c4.969932 32.98109 41.61738 58.62888 86.071334 58.62888 44.45397 0 81.10141-25.64779 86.07134-58.62888z" fill="#fff" stroke-width="10.829243"/><path d="m291.09268 56.635294 16.56904 438.442066h112.1596v24.21628h-131.2777z" fill="#fff" fill-rule="evenodd" stroke-width="10.829243"/><path d="m523.68769 137.95623c-14.34169 13.98578-50.10852 29.96062-71.36558 28.28958-24.61314-.14502-50.16031-9.63032-76.47245-26.76535-24.34286-16.31585-52.99072-24.02176-84.1197-26.76536l.63727 20.39265c33.22908-3.65664 56.33541 15.46286 83.48243 25.49082 19.88678 10.49156 38.4756 21.6911 76.47245 22.30447 39.30946-4.1278 57.47508-23.89568 71.36558-42.94681z" fill="#fff" fill-rule="evenodd" stroke-width="5.414621"/><path d="m544.08905 384.58495-84.1197-202.40738-82.84516 202.40738z" fill="none" stroke-width="10.829243"/><path d="m546.67797 379.0259c-4.96993 32.98109-41.61738 58.62888-86.07134 58.62888-44.45397 0-81.10141-25.64779-86.07134-58.62888z" fill="#fff" stroke-width="10.829243"/></g></svg>